<svg width="24" height="24" viewBox="0 0 24 24" fill="none" xmlns="http://www.w3.org/2000/svg">
<path d="M16.41 11H20V9H16.41L13.41 6C12.63 5.22 11.36 5.22 10.58 6L7.99003 8.59C7.21003 9.37 7.21003 10.64 7.99003 11.42L10.99 14.42V19.01H12.99V14.42C12.99 13.89 12.78 13.38 12.4 13.01L10.4 11.01L12.99 8.42L14.99 10.42C15.37 10.8 15.87 11.01 16.4 11.01L16.41 11ZM16 2C15.4696 2 14.9609 2.21071 14.5858 2.58579C14.2107 2.96086 14 3.46957 14 4C14 4.53043 14.2107 5.03914 14.5858 5.41421C14.9609 5.78929 15.4696 6 16 6C16.5305 6 17.0392 5.78929 17.4142 5.41421C17.7893 5.03914 18 4.53043 18 4C18 3.46957 17.7893 2.96086 17.4142 2.58579C17.0392 2.21071 16.5305 2 16 2Z" fill="black"/>
<path d="M18 13C15.79 13 14 14.79 14 17C14 19.21 15.79 21 18 21C20.21 21 22 19.21 22 17C22 14.79 20.21 13 18 13ZM18 19C16.9 19 16 18.1 16 17C16 15.9 16.9 15 18 15C19.1 15 20 15.9 20 17C20 18.1 19.1 19 18 19ZM10 17C10 14.79 8.21 13 6 13C3.79 13 2 14.79 2 17C2 19.21 3.79 21 6 21C8.21 21 10 19.21 10 17ZM4 17C4 15.9 4.9 15 6 15C7.1 15 8 15.9 8 17C8 18.1 7.1 19 6 19C4.9 19 4 18.1 4 17Z" fill="black"/>
</svg>
