<svg width="24" height="24" viewBox="0 0 24 24" fill="none" xmlns="http://www.w3.org/2000/svg">
<path d="M12 5.39995C13.1587 5.39995 14.1 4.4587 14.1 3.29995C14.1 2.1412 13.1587 1.19995 12 1.19995C10.8412 1.19995 9.9 2.1412 9.9 3.29995C9.9 4.4587 10.8412 5.39995 12 5.39995ZM8.7525 10.9462L9.6 10.0987V12.6975C9.6 13.7475 10.0575 14.7487 10.8562 15.4312L13.5337 17.7262C13.755 17.9175 13.9012 18.18 13.9425 18.4687L14.415 21.7725C14.5087 22.4287 15.1162 22.8862 15.7725 22.7925C16.4287 22.6987 16.8862 22.0912 16.7925 21.435L16.32 18.1312C16.1962 17.265 15.7612 16.4775 15.0975 15.9075L13.8037 14.7975V10.4775L13.9462 10.6537C14.6287 11.5087 15.6637 12.0037 16.7587 12.0037H18.0037C18.6675 12.0037 19.2037 11.4675 19.2037 10.8037C19.2037 10.14 18.6675 9.6037 18.0037 9.6037H16.7587C16.395 9.6037 16.05 9.4387 15.8212 9.1537L15.15 8.3137C14.2875 7.2337 12.9788 6.6037 11.595 6.6037C10.3875 6.6037 9.22875 7.0837 8.3775 7.9387L7.05375 9.24745C6.37875 9.92245 6 10.8375 6 11.7937V13.2C6 13.8637 6.53625 14.4 7.2 14.4C7.86375 14.4 8.4 13.8637 8.4 13.2V11.7937C8.4 11.475 8.5275 11.1712 8.7525 10.9462ZM9.2175 17.6737C9.16125 17.8687 9.05625 18.0487 8.91375 18.1912L6.3525 20.7525C5.88375 21.2212 5.88375 21.9825 6.3525 22.4512C6.82125 22.92 7.5825 22.92 8.05125 22.4512L10.6125 19.89C11.0437 19.4587 11.3587 18.9225 11.5275 18.3337L11.61 18.0487L9.885 16.5712C9.79125 16.4887 9.6975 16.4062 9.6075 16.3162L9.2175 17.6737Z" fill="black"/>
</svg>
