<svg width="24" height="24" viewBox="0 0 24 24" fill="none" xmlns="http://www.w3.org/2000/svg">
<path d="M13.2189 1.19995C14.3776 1.19995 15.3189 2.1412 15.3189 3.29995C15.3189 4.4587 14.3776 5.39995 13.2189 5.39995C12.0601 5.39995 11.1189 4.4587 11.1189 3.29995C11.1189 2.1412 12.0601 1.19995 13.2189 1.19995ZM8.23511 8.99995C8.11136 8.99995 8.00261 9.07495 7.95761 9.18745L7.13261 11.2462C6.88511 11.8612 6.18761 12.1612 5.57261 11.9137C4.95761 11.6662 4.65761 10.9687 4.90511 10.3537L5.72636 8.29495C6.13886 7.2712 7.12886 6.59995 8.23511 6.59995H11.8839C12.9526 6.59995 13.9389 7.1662 14.4751 8.0887L15.7051 10.2H18.0151C18.6789 10.2 19.2151 10.7362 19.2151 11.4C19.2151 12.0637 18.6789 12.6 18.0151 12.6H15.7051C14.8501 12.6 14.0626 12.1462 13.6314 11.4075L13.2564 10.7662L12.4801 13.4062L15.3076 14.2537C16.3464 14.565 16.8751 15.7162 16.4364 16.71L14.3139 21.4874C14.0439 22.0949 13.3351 22.365 12.7314 22.095C12.1276 21.825 11.8539 21.1162 12.1239 20.5125L13.9689 16.3575L10.3726 15.2775C9.14636 14.91 8.42261 13.6387 8.73386 12.3975L9.58511 8.99995H8.23886H8.23511ZM7.93511 15.7875C8.43386 16.3462 9.08636 16.7737 9.85511 17.0025L10.0314 17.0549L9.77261 17.7787C9.55511 18.39 9.17261 18.9337 8.67386 19.3462L5.58386 21.8924C5.07386 22.3124 4.31636 22.2412 3.89636 21.7312C3.47636 21.2212 3.54761 20.4637 4.05761 20.0437L7.14761 17.4975C7.31636 17.3587 7.44011 17.1787 7.51511 16.9762L7.93511 15.7875Z" fill="black"/>
</svg>
