<svg width="24" height="24" viewBox="0 0 24 24" fill="none" xmlns="http://www.w3.org/2000/svg">
<path d="M12 5C11.0234 5 10.1719 5.94875 10.1719 7.20312C10.1719 8.4575 11.0234 9.40625 12 9.40625C12.9766 9.40625 13.8281 8.4575 13.8281 7.20312C13.8281 5.94875 12.9766 5 12 5ZM9.36778 7.72086C7.90261 8.12211 7.15359 9.31545 6.4627 10.6013C5.65111 12.1291 5.14434 13.9319 4.77098 15.4062H4.17188V12.8281H3.32812V15.4062H2.57812V13.5781H1.73438V15.4062H0.9375V16.25H1.73438V18.0781H2.57812V16.25H3.32812V18.8281H4.17188V16.25H8.13712C8.39152 16.8594 8.69531 17.4688 9 18.0781L6.75 18.3594V19.0625H10.162L9.58313 16.25H14.4169L13.838 19.0625H17.25V18.3594L15 18.0781C15.3047 17.4688 15.6084 16.8594 15.8629 16.25H19.8281V18.8281H20.6719V16.25H21.4219V18.0781H22.2656V16.25H23.0625V15.4062H22.2656V13.5781H21.4219V15.4062H20.6719V12.8281H19.8281V15.4062H19.2291C18.8556 13.9314 18.347 12.1242 17.5014 10.5909C16.7975 9.31452 16.1122 8.17564 14.6272 7.75297C14.4021 9.14872 13.3371 10.25 12 10.25C10.6527 10.25 9.58158 9.13175 9.36778 7.72086ZM9.19866 9.98891L9.66928 12.3439C8.25 12.8281 7.5 12.8281 7.5 13.5781C7.5 14.1875 7.62375 14.7969 7.82109 15.4062H6.31959C6.67566 14.0495 7.14633 12.5115 7.78725 11.305C8.2095 10.6241 8.60897 10.4245 9.19866 9.98891ZM14.7908 10.0522C15.3215 10.439 15.7738 10.5645 16.1879 11.3153C16.8505 12.5168 17.3238 14.0505 17.6802 15.4062H16.1789C16.3762 14.7969 16.5 14.1875 16.5 13.5781C16.5 12.8281 15.75 12.8281 14.3306 12.3439L14.7908 10.0522ZM12 13.5781C13.0758 13.5781 14.8125 14.3281 14.8125 14.3281L14.5906 15.4062H9.40941L9.1875 14.3281C9.1875 14.3281 10.9242 13.5781 12 13.5781Z" fill="black"/>
</svg>
