<svg width="24" height="24" viewBox="0 0 24 24" fill="none" xmlns="http://www.w3.org/2000/svg">
<path d="M12 13.5C12.663 13.5 13.2989 13.2366 13.7678 12.7678C14.2366 12.2989 14.5 11.663 14.5 11C14.5 10.337 14.2366 9.70107 13.7678 9.23223C13.2989 8.76339 12.663 8.5 12 8.5C11.337 8.5 10.7011 8.76339 10.2322 9.23223C9.76339 9.70107 9.5 10.337 9.5 11C9.5 11.663 9.76339 12.2989 10.2322 12.7678C10.7011 13.2366 11.337 13.5 12 13.5Z" fill="black" stroke="black" stroke-width="2" stroke-miterlimit="2"/>
<path d="M2 4.5H22M2 2V7M22 2V7M5.5 4.5V13.05L12 17M12 17L18.5 13V4.5M12 17V22" stroke="black" stroke-width="2" stroke-miterlimit="2" stroke-linecap="round" stroke-linejoin="round"/>
</svg>
