<svg width="24" height="24" viewBox="0 0 24 24" fill="none" xmlns="http://www.w3.org/2000/svg">
<path d="M10.7 12.725L9.85 11.45C9.76667 11.3167 9.65 11.2083 9.5 11.125C9.35 11.0417 9.19167 11 9.025 11H2.475C2.29167 10.5667 2.16667 10.15 2.1 9.75C2.03333 9.35 2 8.93333 2 8.5C2 6.93333 2.525 5.625 3.575 4.575C4.625 3.525 5.93333 3 7.5 3C8.36667 3 9.19167 3.18333 9.975 3.55C10.7583 3.91667 11.4333 4.43333 12 5.1C12.5667 4.43333 13.2417 3.91667 14.025 3.55C14.8083 3.18333 15.6333 3 16.5 3C18.0667 3 19.375 3.525 20.425 4.575C21.475 5.625 22 6.93333 22 8.5C22 8.93333 21.9667 9.35 21.9 9.75C21.8333 10.15 21.7083 10.5667 21.525 11H15.575L13.85 8.45C13.75 8.3 13.621 8.18767 13.463 8.113C13.305 8.03833 13.134 8.00067 12.95 8C12.7333 8 12.546 8.06267 12.388 8.188C12.23 8.31333 12.1173 8.47567 12.05 8.675L10.7 12.725ZM12 21.35L10.55 20.05C8.8 18.4833 7.36667 17.1417 6.25 16.025C5.13333 14.9083 4.25833 13.9 3.625 13H8.425L10.15 15.55C10.25 15.7 10.3793 15.8127 10.538 15.888C10.6967 15.9633 10.8673 16.0007 11.05 16C11.2667 16 11.4543 15.9377 11.613 15.813C11.7717 15.6883 11.884 15.5257 11.95 15.325L13.3 11.25L14.175 12.55C14.2583 12.6833 14.375 12.7917 14.525 12.875C14.675 12.9583 14.8333 13 15 13H20.375C19.7417 13.9 18.8667 14.9083 17.75 16.025C16.6333 17.1417 15.2 18.4833 13.45 20.05L12 21.35Z" fill="black"/>
</svg>
