<svg width="24" height="24" viewBox="0 0 24 24" fill="none" xmlns="http://www.w3.org/2000/svg">
<path fill-rule="evenodd" clip-rule="evenodd" d="M4.56999 17.866C5.25699 16.792 6.72699 16.827 7.45799 17.762C8.44799 19.029 9.82999 20.25 12 20.25C14.209 20.25 15.57 19.271 16.505 18.02C17.225 17.058 18.791 16.901 19.545 18.044C20.171 18.989 20.849 19.731 22.172 20.042C22.2683 20.0642 22.3593 20.1051 22.4397 20.1626C22.5201 20.22 22.5884 20.2928 22.6406 20.3767C22.6929 20.4606 22.728 20.554 22.744 20.6515C22.76 20.749 22.7566 20.8487 22.7339 20.9449C22.7112 21.0411 22.6698 21.1319 22.6119 21.212C22.5541 21.2921 22.4809 21.36 22.3967 21.4118C22.3126 21.4636 22.219 21.4982 22.1214 21.5137C22.0238 21.5292 21.9241 21.5252 21.828 21.502C19.976 21.066 19.021 19.969 18.294 18.871C18.267 18.8291 18.2294 18.7951 18.1849 18.7726C18.1404 18.7501 18.0907 18.7399 18.041 18.743C17.9753 18.745 17.911 18.762 17.8529 18.7926C17.7949 18.8233 17.7446 18.8669 17.706 18.92C16.54 20.48 14.76 21.75 12 21.75C9.15799 21.75 7.38899 20.11 6.27599 18.685C6.24798 18.646 6.21102 18.6143 6.16821 18.5926C6.1254 18.5708 6.078 18.5597 6.02999 18.56C5.99025 18.5605 5.95131 18.5712 5.91696 18.5912C5.88261 18.6112 5.85403 18.6397 5.83399 18.674C5.09399 19.83 4.13899 21.039 2.17199 21.502C2.07592 21.5252 1.97621 21.5292 1.8786 21.5137C1.78099 21.4982 1.68741 21.4636 1.60322 21.4118C1.51904 21.36 1.44592 21.2921 1.38806 21.212C1.3302 21.1319 1.28875 21.0411 1.26608 20.9449C1.24342 20.8487 1.23999 20.749 1.25599 20.6515C1.27199 20.554 1.30711 20.4606 1.35933 20.3767C1.41155 20.2928 1.47983 20.22 1.56026 20.1626C1.64069 20.1051 1.73167 20.0642 1.82799 20.042C3.22899 19.712 3.90799 18.902 4.56999 17.866Z" fill="black"/>
<path d="M22.172 15.042C20.849 14.731 20.171 13.989 19.546 13.044C18.846 11.984 17.446 12.043 16.674 12.825L15.5 11.5L8.99996 4.134C8.7491 3.86242 8.40228 3.6993 8.03311 3.67928C7.66394 3.65925 7.3015 3.78389 7.02274 4.02674C6.74397 4.26958 6.57083 4.61151 6.54006 4.97994C6.5093 5.34837 6.62333 5.71428 6.85796 6L7.84496 7.152C8.44996 7.858 7.47796 9.415 7.47796 9.415L4.99996 12.4C4.83054 12.5288 4.68529 12.6865 4.57096 12.866C3.90896 13.901 3.23096 14.712 1.82896 15.042C1.73265 15.0642 1.64166 15.1051 1.56124 15.1625C1.48081 15.22 1.41252 15.2927 1.36031 15.3766C1.30809 15.4606 1.27297 15.554 1.25697 15.6515C1.24097 15.749 1.2444 15.8487 1.26706 15.9449C1.28972 16.0411 1.33118 16.1319 1.38904 16.212C1.44689 16.2921 1.52002 16.36 1.6042 16.4118C1.68839 16.4636 1.78197 16.4982 1.87958 16.5137C1.97719 16.5291 2.07689 16.5252 2.17296 16.502C4.13996 16.039 5.09496 14.83 5.83496 13.674C5.855 13.6397 5.88359 13.6111 5.91794 13.5912C5.95229 13.5712 5.99123 13.5605 6.03096 13.56C6.07898 13.5596 6.12638 13.5708 6.16919 13.5925C6.21199 13.6143 6.24896 13.646 6.27696 13.685C7.38896 15.11 9.15796 16.75 12 16.75C14.76 16.75 16.539 15.48 17.706 13.92C17.7446 13.8669 17.7948 13.8233 17.8529 13.7926C17.911 13.7619 17.9753 13.745 18.041 13.743C18.0906 13.7398 18.1402 13.7499 18.1847 13.7722C18.2292 13.7945 18.2669 13.8283 18.294 13.87C19.021 14.97 19.976 16.066 21.828 16.502C22.0211 16.5464 22.224 16.5126 22.3923 16.4078C22.5606 16.3031 22.6806 16.136 22.7261 15.9431C22.7715 15.7501 22.7388 15.5471 22.6349 15.3782C22.5311 15.2094 22.3647 15.0885 22.172 15.042ZM17 8C17.663 8 18.2989 7.73661 18.7677 7.26777C19.2366 6.79893 19.5 6.16304 19.5 5.5C19.5 4.83696 19.2366 4.20107 18.7677 3.73223C18.2989 3.26339 17.663 3 17 3C16.3369 3 15.701 3.26339 15.2322 3.73223C14.7634 4.20107 14.5 4.83696 14.5 5.5C14.5 6.16304 14.7634 6.79893 15.2322 7.26777C15.701 7.73661 16.3369 8 17 8Z" fill="black"/>
</svg>
