<svg width="24" height="24" viewBox="0 0 24 24" fill="none" xmlns="http://www.w3.org/2000/svg">
<path d="M2.88989 3C2.88989 3.66304 3.15328 4.29893 3.62213 4.76777C4.09097 5.23661 4.72685 5.5 5.38989 5.5C6.05293 5.5 6.68882 5.23661 7.15766 4.76777C7.6265 4.29893 7.88989 3.66304 7.88989 3C7.88989 2.33696 7.6265 1.70107 7.15766 1.23223C6.68882 0.763392 6.05293 0.5 5.38989 0.5C4.72685 0.5 4.09097 0.763392 3.62213 1.23223C3.15328 1.70107 2.88989 2.33696 2.88989 3ZM11.3299 9.61C11.1014 9.28456 11.0115 8.88171 11.0799 8.49C11.1117 8.28934 11.184 8.09723 11.2922 7.92533C11.4005 7.75344 11.5426 7.60533 11.7099 7.49L14.8399 5.32C15.1845 5.09678 15.5895 4.98506 15.9999 5H18.9099C19.3077 5 19.6892 4.84196 19.9706 4.56066C20.2519 4.27936 20.4099 3.89782 20.4099 3.5C20.4099 3.10218 20.2519 2.72064 19.9706 2.43934C19.6892 2.15804 19.3077 2 18.9099 2H15.6699C14.8553 1.99899 14.0599 2.2467 13.3899 2.71L9.99989 5.06C9.02092 5.74079 8.35139 6.78156 8.13775 7.95469C7.92411 9.12782 8.18376 10.3378 8.85989 11.32L9.93989 12.87C9.97513 12.9242 10.021 12.9707 10.0746 13.0068C10.1283 13.0429 10.1887 13.0677 10.2522 13.0798C10.3157 13.092 10.381 13.0912 10.4442 13.0775C10.5074 13.0637 10.5671 13.0374 10.6199 13L12.2899 11.9C12.4002 11.8215 12.4755 11.7031 12.4999 11.57C12.5144 11.5046 12.5148 11.4369 12.501 11.3714C12.4872 11.3058 12.4595 11.244 12.4199 11.19L11.3299 9.61Z" fill="black"/>
<path d="M20.5199 7L19.7699 5.87C19.5498 5.53848 19.207 5.30798 18.8169 5.22921C18.4268 5.15045 18.0214 5.22987 17.6899 5.45C17.3584 5.67013 17.1279 6.01294 17.0491 6.40301C17.0101 6.59616 17.0095 6.79509 17.0474 6.98846C17.0853 7.18183 17.1609 7.36584 17.2699 7.53L17.9999 8.67C18.0748 8.76287 18.1106 8.88119 18.0999 9C18.0893 9.06508 18.0651 9.12721 18.0289 9.18234C17.9928 9.23747 17.9454 9.28437 17.8899 9.32L11.2099 13.78C11.098 13.8543 11.0192 13.9689 10.9899 14.1C10.9704 14.2322 10.9988 14.3669 11.0699 14.48L11.3899 14.93V21.93C11.3899 22.3278 11.5479 22.7094 11.8292 22.9907C12.1105 23.272 12.4921 23.43 12.8899 23.43C13.2877 23.43 13.6692 23.272 13.9506 22.9907C14.2319 22.7094 14.3899 22.3278 14.3899 21.93V15.3L19.4499 11.93C20.0799 11.5309 20.5721 10.948 20.8599 10.26C21.0745 9.73031 21.1557 9.15602 21.0964 8.5876C21.0371 8.01918 20.8392 7.47401 20.5199 7Z" fill="black"/>
</svg>
