<svg width="24" height="24" viewBox="0 0 24 24" fill="none" xmlns="http://www.w3.org/2000/svg">
<path fill-rule="evenodd" clip-rule="evenodd" d="M5.4466 6.888C5.4391 6.903 5.4146 6.958 5.4116 7.085C5.3738 8.8109 5.3578 10.5372 5.3636 12.2635C5.3656 14.5065 5.3906 16.0235 5.4116 16.915C5.4146 17.0415 5.4391 17.097 5.4466 17.112C5.4526 17.124 5.4581 17.132 5.4766 17.145C5.5351 17.185 5.7006 17.25 6.0341 17.25C6.3671 17.25 6.5326 17.185 6.5906 17.145C6.60372 17.1373 6.61418 17.1258 6.6206 17.112C6.6286 17.097 6.6531 17.042 6.6556 16.915C6.6781 15.989 6.7041 14.3885 6.7041 12C6.7041 9.6115 6.6781 8.011 6.6561 7.085C6.6531 6.9585 6.6286 6.903 6.6211 6.888C6.61468 6.87421 6.60422 6.8627 6.5911 6.855C6.5326 6.815 6.3671 6.75 6.0341 6.75C5.7011 6.75 5.5351 6.815 5.4771 6.855C5.4638 6.86262 5.45316 6.87414 5.4466 6.888ZM3.4081 16.777L3.4121 16.963C3.4311 17.743 3.7531 18.3875 4.3451 18.7935C4.8781 19.1595 5.5116 19.25 6.0341 19.25C6.5566 19.25 7.1896 19.1595 7.7226 18.7935C8.3146 18.3875 8.6366 17.7435 8.6551 16.9625C8.6691 16.3815 8.6846 15.545 8.6946 14.426C10.8984 14.4359 13.1023 14.4342 15.3061 14.421C15.3161 15.5425 15.3311 16.381 15.3451 16.963C15.3636 17.743 15.6861 18.3875 16.2776 18.7935C16.8106 19.1595 17.4441 19.25 17.9666 19.25C18.4891 19.25 19.1221 19.1595 19.6551 18.7935C20.2471 18.3875 20.5691 17.7435 20.5881 16.9625L20.5921 16.777C20.7494 16.8043 20.9083 16.818 21.0686 16.818C21.6761 16.818 22.2776 16.624 22.7401 16.198C23.2096 15.765 23.4581 15.1635 23.4736 14.5045C23.4881 13.912 23.5006 13.0865 23.5006 11.9995C23.5006 10.9135 23.4881 10.0875 23.4736 9.495C23.4576 8.836 23.2096 8.235 22.7401 7.8015C22.2776 7.3755 21.6761 7.1815 21.0686 7.1815C20.9079 7.1815 20.7491 7.19517 20.5921 7.2225L20.5881 7.0375C20.5691 6.257 20.2471 5.6125 19.6551 5.2065C19.1221 4.8405 18.4886 4.75 17.9666 4.75C17.4441 4.75 16.8106 4.8405 16.2776 5.2065C15.6861 5.6125 15.3636 6.2565 15.3451 7.037C15.3257 7.88439 15.3127 8.73191 15.3061 9.5795C13.1021 9.56563 10.8981 9.56396 8.6941 9.5745C8.68765 8.72858 8.67465 7.88272 8.6551 7.037C8.6366 6.257 8.3146 5.6125 7.7226 5.2065C7.1896 4.8405 6.5561 4.75 6.0336 4.75C5.5111 4.75 4.8781 4.8405 4.3451 5.2065C3.7531 5.6125 3.4311 6.2565 3.4121 7.037L3.4081 7.2225C3.25093 7.19505 3.09166 7.18133 2.9321 7.1815C2.3241 7.1815 1.7231 7.3755 1.2606 7.8015C0.790604 8.2345 0.542604 8.8365 0.526604 9.495C0.507762 10.3299 0.498928 11.1649 0.500104 12C0.500104 13.0865 0.512604 13.912 0.526604 14.5045C0.542604 15.1635 0.791104 15.765 1.2606 16.198C1.7231 16.624 2.3241 16.818 2.9321 16.818C3.09244 16.818 3.2511 16.8043 3.4081 16.777ZM3.3631 11.737V12.2625C3.36283 12.9937 3.3545 13.7249 3.3381 14.456C3.3331 14.6335 3.2766 14.701 3.2481 14.7275C3.2111 14.761 3.1201 14.818 2.9321 14.818C2.7436 14.818 2.6521 14.761 2.6161 14.7275C2.5871 14.7005 2.5306 14.6335 2.5261 14.456C2.5121 13.881 2.5001 13.071 2.5001 12C2.5001 10.929 2.5121 10.119 2.5261 9.5435C2.5306 9.3665 2.5871 9.299 2.6161 9.272C2.6526 9.2385 2.7436 9.182 2.9321 9.182C3.1201 9.182 3.2111 9.2385 3.2476 9.272C3.2766 9.299 3.3336 9.3665 3.3376 9.5435C3.3506 10.071 3.3616 10.795 3.3636 11.7375M20.6376 12V12.13C20.6381 13.137 20.6501 13.904 20.6636 14.456C20.6676 14.6335 20.7241 14.701 20.7536 14.7275C20.7896 14.761 20.8811 14.818 21.0691 14.818C21.2571 14.818 21.3486 14.761 21.3851 14.7275C21.4141 14.7005 21.4706 14.6335 21.4751 14.456C21.4886 13.881 21.5011 13.071 21.5011 12C21.5011 10.929 21.4886 10.119 21.4751 9.5435C21.4706 9.3665 21.4141 9.299 21.3851 9.272C21.3486 9.2385 21.2571 9.182 21.0691 9.182C20.8811 9.182 20.7896 9.2385 20.7536 9.272C20.7241 9.299 20.6676 9.3665 20.6636 9.5435C20.6501 10.0955 20.6386 10.8625 20.6376 11.87V12ZM18.5891 7.085C18.6106 7.994 18.6366 9.553 18.6376 11.8695V12.1305C18.6398 13.7255 18.6237 15.3204 18.5891 16.915C18.5861 17.0415 18.5621 17.097 18.5541 17.112C18.5474 17.1256 18.537 17.1371 18.5241 17.145C18.4656 17.185 18.3006 17.25 17.9671 17.25C17.6336 17.25 17.4681 17.185 17.4101 17.145C17.3972 17.1371 17.3868 17.1256 17.3801 17.112C17.3721 17.097 17.3481 17.042 17.3451 16.915C17.3097 15.2769 17.2935 13.6385 17.2966 12C17.2966 9.6115 17.3226 8.011 17.3451 7.085C17.3481 6.9585 17.3721 6.903 17.3801 6.888C17.3868 6.87438 17.3972 6.86293 17.4101 6.855C17.4681 6.815 17.6336 6.75 17.9671 6.75C18.3006 6.75 18.4656 6.815 18.5236 6.855C18.5367 6.86286 18.5473 6.87431 18.5541 6.888C18.5621 6.903 18.5861 6.958 18.5891 7.085Z" fill="black"/>
</svg>
