<svg width="88" height="88" viewBox="0 0 88 88" fill="none" xmlns="http://www.w3.org/2000/svg">
<g clip-path="url(#clip0_279_1162)">
<path d="M64 0H24C10.7452 0 0 10.7452 0 24V64C0 77.2548 10.7452 88 24 88H64C77.2548 88 88 77.2548 88 64V24C88 10.7452 77.2548 0 64 0Z" fill="#0C0C0C"/>
<g filter="url(#filter0_f_279_1162)">
<path d="M3 27C3 13.7452 13.7452 3 27 3H61C74.2548 3 85 13.7452 85 27V59C85 72.2548 74.2548 83 61 83H27C13.7452 83 3 72.2548 3 59V27Z" fill="#0C0C0C"/>
<mask id="mask0_279_1162" style="mask-type:luminance" maskUnits="userSpaceOnUse" x="3" y="3" width="82" height="80">
<path d="M3 27C3 13.7452 13.7452 3 27 3H61C74.2548 3 85 13.7452 85 27V59C85 72.2548 74.2548 83 61 83H27C13.7452 83 3 72.2548 3 59V27Z" fill="white"/>
</mask>
<g mask="url(#mask0_279_1162)">
<path d="M2 27C2 13.1929 13.1929 2 27 2H61C74.8071 2 86 13.1929 86 27H84C84 14.2975 73.7026 4 61 4H27C14.2975 4 4 14.2975 4 27H2ZM27 83C13.1929 83 2 71.8071 2 58V27C2 13.1929 13.1929 2 27 2V4C14.2975 4 4 14.2975 4 27V59C4 72.2548 14.2975 83 27 83ZM61 2C74.8071 2 86 13.1929 86 27V58C86 71.8071 74.8071 83 61 83C73.7026 83 84 72.2548 84 59V27C84 14.2975 73.7026 4 61 4V2Z" fill="white" fill-opacity="0.3"/>
</g>
</g>
<path d="M79 24C56.2889 31.1875 41.0444 31.5 18.6444 24C21.1383 28.8647 25.471 31.1638 39.1778 34.3125C43.0729 35.3861 41.9778 43.375 40.1111 46.5C37 52.125 22.2424 58.5751 9 64C25.8 63.6875 56.9111 47.125 57.5333 50.875C57.7306 60.0598 58.796 62.269 63.4444 61.1875C58.4667 59.0969 64.6889 44 60.9556 44H54.4222C52.5556 43.6875 53.8 36.1875 58.1556 34.3125C59.7111 33.0625 76.2 29.625 79 24Z" fill="white"/>
</g>
<defs>
<filter id="filter0_f_279_1162" x="1" y="1" width="86" height="84" filterUnits="userSpaceOnUse" color-interpolation-filters="sRGB">
<feFlood flood-opacity="0" result="BackgroundImageFix"/>
<feBlend mode="normal" in="SourceGraphic" in2="BackgroundImageFix" result="shape"/>
<feGaussianBlur stdDeviation="1" result="effect1_foregroundBlur_279_1162"/>
</filter>
<clipPath id="clip0_279_1162">
<rect width="88" height="88" fill="white"/>
</clipPath>
</defs>
</svg>
