<svg width="183" height="44" viewBox="0 0 183 44" fill="none" xmlns="http://www.w3.org/2000/svg">
<path d="M78 0C52.6933 7.90625 35.7067 8.25 10.7467 0C13.5255 5.35112 18.3534 7.88017 33.6267 11.3438C37.967 12.5247 36.7467 21.3125 34.6667 24.75C31.2 30.9375 14.7559 38.0326 0 44C18.72 43.6562 53.3867 25.4375 54.08 29.5625C54.2998 39.6658 55.4869 42.0959 60.6667 40.9062C55.12 38.6065 62.0533 22 57.8933 22H50.6133C48.5333 21.6562 49.92 13.4062 54.7733 11.3438C56.5067 9.96875 74.88 6.1875 78 0Z" fill="#6717DE"/>
<path d="M84.6878 11.1078V23.3958L94.1598 11.1078H98.9918L91.2478 21.0918L99.0878 34.4998H94.3518L88.5598 24.5478L84.6878 29.5078V34.4998H80.5918V11.1078H84.6878ZM103.531 15.5238C102.187 15.5238 101.131 14.4678 101.131 13.1558C101.131 11.8438 102.187 10.8198 103.531 10.8198C104.811 10.8198 105.867 11.8438 105.867 13.1558C105.867 14.4678 104.811 15.5238 103.531 15.5238ZM101.579 34.4998V18.6918H105.483V34.4998H101.579ZM113.42 34.4998H109.516V18.6918H113.132L113.452 20.7398C114.444 19.1398 116.364 18.2118 118.508 18.2118C122.476 18.2118 124.524 20.6758 124.524 24.7718V34.4998H120.62V25.6998C120.62 23.0438 119.308 21.7638 117.292 21.7638C114.892 21.7638 113.42 23.4278 113.42 25.9878V34.4998ZM135.432 34.9158C130.728 34.9158 127.432 31.4918 127.432 26.5958C127.432 21.6358 130.664 18.2118 135.304 18.2118C140.04 18.2118 143.048 21.3798 143.048 26.3078V27.4918L131.144 27.5238C131.432 30.3078 132.904 31.7158 135.496 31.7158C137.64 31.7158 139.048 30.8838 139.496 29.3798H143.112C142.44 32.8358 139.56 34.9158 135.432 34.9158ZM135.336 21.4118C133.032 21.4118 131.624 22.6598 131.24 25.0278H139.176C139.176 22.8518 137.672 21.4118 135.336 21.4118ZM151.392 34.4998H147.488V21.9558H144.448V18.6918H147.488V13.7638H151.392V18.6918H154.464V21.9558H151.392V34.4998ZM158.843 15.5238C157.499 15.5238 156.443 14.4678 156.443 13.1558C156.443 11.8438 157.499 10.8198 158.843 10.8198C160.123 10.8198 161.179 11.8438 161.179 13.1558C161.179 14.4678 160.123 15.5238 158.843 15.5238ZM156.891 34.4998V18.6918H160.795V34.4998H156.891ZM163.901 26.4038C163.901 21.4438 166.845 18.2118 171.293 18.2118C173.693 18.2118 175.773 19.2678 176.733 21.0918L176.989 18.6918H180.573V41.8278H176.701V32.3878C175.709 33.9878 173.629 34.9158 171.293 34.9158C166.589 34.9158 163.901 31.3318 163.901 26.4038ZM167.805 26.5958C167.805 29.4118 169.469 31.3958 172.189 31.3958C174.909 31.3958 176.669 29.4438 176.669 26.5958C176.669 23.7478 174.909 21.7638 172.189 21.7638C169.469 21.7638 167.805 23.7798 167.805 26.5958Z" fill="#0C0C0C"/>
</svg>
